<svg width="822" height="390" viewBox="0 0 822 390" fill="none" xmlns="http://www.w3.org/2000/svg">
<rect y="0.00891113" width="822" height="389" fill="#F6BC51"/>
<mask id="mask0" mask-type="alpha" maskUnits="userSpaceOnUse" x="0" y="0" width="822" height="390">
<rect y="0.00891113" width="822" height="389" fill="#C4C4C4"/>
</mask>
<g mask="url(#mask0)">
<rect width="92.1798" height="642.096" transform="matrix(-0.90131 -0.433175 0.90397 -0.427596 -70.46 271.832)" fill="#F6BC51"/>
<rect width="92.1798" height="770.551" transform="matrix(-0.90131 -0.433175 0.90397 -0.427596 -103.774 366.752)" fill="#78CBC1"/>
<rect width="92.1798" height="838.863" transform="matrix(-0.90131 -0.433175 0.90397 -0.427596 -83.0669 434.498)" fill="#FEFEF7"/>
<rect width="92.1798" height="1107.24" transform="matrix(-0.90131 -0.433175 0.90397 -0.427596 -0.277344 474.548)" fill="#78CBC1"/>
<rect width="229.515" height="986.076" transform="matrix(-0.90131 -0.433175 0.90397 -0.427596 206.844 574.193)" fill="#77CBC3"/>
</g>
<path d="M434 33.0089L516.766 71.8484H351.428L434 33.0089Z" fill="#032F48"/>
<path d="M352 71.5089L436.218 109.912H270.88L352 71.5089Z" fill="#032F48"/>
<path d="M271.349 109.807L353.604 148.185L188.708 148.707L271.349 109.807Z" fill="#EF562C"/>
<path d="M441.052 186.353L358.383 148.394H523.721L441.052 186.353Z" fill="#EF562C"/>
<path d="M522.81 148.498L437.93 110.33H603.269L522.81 148.498Z" fill="#EF562C"/>
<path d="M602.8 110.435L520.546 72.0577L685.442 71.5348L602.8 110.435Z" fill="#134657"/>
<path d="M111.223 265.038L192.072 303.865L190.792 225.623L111.223 265.038Z" fill="#F6BC51"/>
<path d="M190.578 226.055L271.886 265.926L270.605 187.685L190.578 226.055Z" fill="#F6BC51"/>
<path d="M270.388 187.907L352.118 226.535L351.946 148.498L270.388 187.907Z" fill="#F6BC51"/>
</svg>
